# xmcd
#
# Track frame offsets:
#	150
#	13374
#	25086
#	33295
#	42003
#	53123
#	64840
#	75641
#	86568
#	97886
#	110995
#	121278
#	132564
#	142256
#	153319
#	163865
#	174323
#	186061
#	196382
#	207128
#	219470
#	229228
#	241285
#	253459
#
# Disc length: 3537 seconds
#
# Revision: 0
# Processed by: cddbd v1.5.2PL0 Copyright (c) Steve Scherf et al.
# Submitted via: audiograbber 1.83.01
#
DISCID=590dcf18
DTITLE=Various Artist - The Forgotten Oldies Volume 1
DYEAR=1900
DGENRE=
TTITLE0=Irma Thomas - Anyone Who Knows What Love Is
TTITLE1=Johnny Thunder - Bewildered
TTITLE2=Schoolboys - Carol
TTITLE3=Richettes - Darling
TTITLE4=LaRells - I Guess I'll Never Stop Loving You
TTITLE5=Emotions - I Ran To You
TTITLE6=Superbs - It Hurts So Much
TTITLE7=Leo Wright - It Is I
TTITLE8=Sparkletones - Just One More Chance
TTITLE9=Sundials - Chapel Of Love
TTITLE10=Visions - Look At Me Now
TTITLE11=Ideals - Together
TTITLE12=Daycords - Too Bad
TTITLE13=Arthur Lee Maye And The Crowns - Truly
TTITLE14=Belvederes - Why Do You Treat Me This Way
TTITLE15=Orbits - Message Of Love
TTITLE16=Delmontics - You Can Call
TTITLE17=Cardigans - Your Graduation Means Goodbye
TTITLE18=Marie Knight - As Long As I Love
TTITLE19=Quails - My Love
TTITLE20=Delvets - Repeat After Me
TTITLE21=Mandrells - Darling Im Home
TTITLE22=Cotillions - This Road
TTITLE23=Puffs - Moon Out There
EXTD=
EXTT0=
EXTT1=
EXTT2=
EXTT3=
EXTT4=
EXTT5=
EXTT6=
EXTT7=
EXTT8=
EXTT9=
EXTT10=
EXTT11=
EXTT12=
EXTT13=
EXTT14=
EXTT15=
EXTT16=
EXTT17=
EXTT18=
EXTT19=
EXTT20=
EXTT21=
EXTT22=
EXTT23=
PLAYORDER=
